<svg id="Capa_1" enable-background="new 0 0 512 512" height="512" viewBox="0 0 512 512" width="512" xmlns="http://www.w3.org/2000/svg"><g><path d="m512 256c0 115.01-75.84 212.3-180.24 244.6-23.94 7.41-49.39-6.974-75.76-6.974-34.6 0-63.653-19.304-93.753-31.744-18.44-7.62-39.747 13.478-55.717 1.968-64.52-46.48-106.53-122.26-106.53-207.85 0-141.38 114.62-256 256-256s256 114.62 256 256z" fill="#9dc6fb"/><g><path d="m331.76 487.22v13.38c-23.94 7.41-49.39 11.4-75.76 11.4-55.79 0-107.41-17.85-149.47-48.15 10.08-34.37 41.86-59.47 79.5-59.47h62.88c45.76 0 82.85 37.09 82.85 82.84z" fill="#78c2a4"/><path d="m241.15 404.38c-45.75 0-82.85 37.08-82.85 82.84v5.47c-18.44-7.62-35.8-17.33-51.77-28.84 10.08-34.38 41.86-59.47 79.5-59.47z" fill="#66b394"/><path d="m254.585 311.885v98.153c0 10.355-4.199 19.726-10.984 26.5-6.774 6.785-16.145 10.984-26.5 10.984-7.293 0-14.101-2.078-19.847-5.691-10.587-6.619-17.637-18.388-17.637-31.793v-98.153z" fill="#ffddce"/><path d="m254.585 311.885v93.545c-5.105.718-10.31 1.083-15.615 1.083-21.781 0-42.125-6.188-59.353-16.908v-77.72z" fill="#ffcbbe"/><path d="m197.254 349.988v91.843c-10.587-6.619-17.637-18.388-17.637-31.793v-60.05z" fill="#ffcbbe"/><path d="m193.528 49.51c-40.315 0-74.055 28.059-82.817 65.707l-19.971-19.971c-14.231 14.231-17.083 35.519-8.581 52.593h-24.091c0 25.198 20.427 45.625 45.625 45.625 1.615 0 3.21-.087 4.781-.25v8.068h139.275v-151.772z" fill="#21386b"/><path d="m113.184 206.873c-17.818 17.818-17.818 46.706 0 64.523s46.706 17.818 64.523 0" fill="#26457d"/><path d="m358.722 246.596h-249.075c-16.125 0-29.198-13.072-29.198-29.198 0-16.125 13.072-29.198 29.198-29.198h249.075c16.125 0 29.198 13.072 29.198 29.198 0 16.126-13.072 29.198-29.198 29.198z" fill="#ffcbbe"/><path d="m109.647 229.872c-6.878 0-12.474-5.596-12.474-12.473 0-6.878 5.596-12.474 12.474-12.474h249.075c6.878 0 12.474 5.596 12.474 12.473s-5.596 12.474-12.474 12.474z" fill="#eaac9d"/><path d="m238.97 389.606c-62.199 0-112.62-50.422-112.62-112.62v-79.847c0-62.198 50.422-112.62 112.62-112.62h62.765c27.534 0 49.856 22.321 49.856 49.856v142.612c-.001 62.197-50.423 112.619-112.621 112.619z" fill="#ffddce"/><path d="m266.761 386.147c-8.888 2.258-18.194 3.452-27.786 3.452-62.202 0-112.626-50.412-112.626-112.614v-79.845c0-62.202 50.424-112.626 112.626-112.626h55.56c-62.19 0-112.614 50.423-112.614 112.626v79.846c.001 52.621 36.077 96.797 84.84 109.161z" fill="#ffcbbe"/><path d="m209.8 217.994c-7.898 0-14.301-6.403-14.301-14.301v-29.793c0-7.898 6.403-14.301 14.301-14.301 7.898 0 14.301 6.403 14.301 14.301v29.794c0 7.897-6.402 14.3-14.301 14.3z" fill="#21386b"/><path d="m297.99 217.994c-7.898 0-14.301-6.403-14.301-14.301v-29.793c0-7.898 6.403-14.301 14.301-14.301 7.898 0 14.301 6.403 14.301 14.301v29.794c0 7.897-6.403 14.3-14.301 14.3z" fill="#21386b"/><path d="m268.196 247.192h-28.602v-148.373c0-7.898 6.403-14.301 14.301-14.301 7.898 0 14.301 6.403 14.301 14.301z" fill="#ffcbbe"/><path d="m252.675 322.935h-29.794c-6.103 0-11.051-4.947-11.051-11.051s4.947-11.051 11.051-11.051h29.794c6.103 0 11.051 4.947 11.051 11.051s-4.948 11.051-11.051 11.051z" fill="#ffcbbe"/><path d="m156.744 63.833v16.98c-21.907 8.023-37.54 29.058-37.54 53.744v53.643h7.884c28.226 0 51.107-22.882 51.107-51.107v-34.33h23.999c20.971 0 37.971-17 37.971-37.971v-.959z" fill="#21386b"/><path d="m191.775 280.985c-2.251 0-4.476-1.009-5.953-2.931l-72.566-94.442c-2.523-3.284-1.907-7.993 1.378-10.517 3.287-2.525 7.993-1.906 10.517 1.378l72.566 94.442c2.523 3.284 1.907 7.993-1.378 10.517-1.362 1.046-2.97 1.553-4.564 1.553z" fill="#f9f6f6"/><path d="m187.11 297.613c-.97 0-1.955-.189-2.904-.588l-71.163-29.929c-3.818-1.606-5.612-6.003-4.006-9.821 1.605-3.819 6.006-5.611 9.82-4.006l71.163 29.929c3.818 1.606 5.612 6.003 4.006 9.821-1.206 2.868-3.988 4.594-6.916 4.594z" fill="#f9f6f6"/><path d="m318.131 271.01c-.994 0-2.004-.199-2.975-.619-3.802-1.645-5.55-6.06-3.904-9.862l35.002-80.893c1.645-3.802 6.057-5.55 9.861-3.905 3.802 1.645 5.55 6.06 3.904 9.862l-35.002 80.893c-1.224 2.832-3.986 4.524-6.886 4.524z" fill="#f9f6f6"/><path d="m323.462 292.957c-2.548 0-5.031-1.299-6.438-3.643-2.131-3.552-.979-8.159 2.573-10.29l33.255-19.953c3.551-2.131 8.157-.98 10.29 2.573 2.131 3.552.979 8.159-2.573 10.29l-33.255 19.953c-1.209.725-2.539 1.07-3.852 1.07z" fill="#f9f6f6"/><path d="m342.437 61.456 25.456-25.456c-24-24-62.912-24-86.912 0v-36c-33.941 0-61.456 27.515-61.456 61.456s27.515 61.456 61.456 61.456h122.912c0-33.941-27.515-61.456-61.456-61.456z" fill="#26457d"/><path d="m308.989 254.135-3.905-8.082c-5.847-12.101-18.102-19.79-31.541-19.79h-23.88c-13.44 0-25.694 7.689-31.541 19.79l-3.905 8.082h-8.646c-14.969 0-27.103 12.135-27.103 27.103v37.293c0 39.253 31.821 71.074 71.074 71.074h15.477c39.253 0 71.074-31.821 71.074-71.074v-37.293c-.001-14.968-12.135-27.103-27.104-27.103z" fill="#f9f6f6"/><g fill="#dddaec"><path d="m260.627 389.599h-11.08c-39.26 0-71.08-31.82-71.08-71.07v-37.29c0-14.97 12.14-27.1 27.11-27.1h8.64l3.91-8.09c5.85-12.1 18.1-19.79 31.54-19.79h11.08c-13.44 0-25.69 7.69-31.54 19.79l-3.9 8.09h-8.65c-14.97 0-27.1 12.13-27.1 27.1v37.29c.001 39.25 31.82 71.07 71.07 71.07z"/><path d="m271.025 236.844h-23.04c-8.849 0-16.022 7.173-16.022 16.022 0 8.849 7.173 16.022 16.022 16.022h23.04c8.849 0 16.022-7.173 16.022-16.022 0-8.848-7.174-16.022-16.022-16.022z"/><path d="m303.804 302.748h-83.073c-4.224 0-7.648-3.424-7.648-7.648 0-4.224 3.424-7.648 7.648-7.648h83.073c4.224 0 7.648 3.424 7.648 7.648.001 4.224-3.424 7.648-7.648 7.648z"/><path d="m312.482 330.016h-100.428c-4.224 0-7.648-3.424-7.648-7.648 0-4.224 3.424-7.648 7.648-7.648h100.427c4.224 0 7.648 3.424 7.648 7.648.001 4.224-3.423 7.648-7.647 7.648z"/><path d="m297.98 358.615h-71.424c-4.224 0-7.648-3.424-7.648-7.648 0-4.224 3.424-7.648 7.648-7.648h71.424c4.224 0 7.648 3.424 7.648 7.648 0 4.223-3.424 7.648-7.648 7.648z"/></g></g><circle cx="423.643" cy="88.357" fill="#78c2a4" r="88.357"/><circle cx="423.643" cy="88.357" fill="#f9f6f6" r="74.357"/><circle cx="423.643" cy="88.357" fill="#f9f6f6" r="74.357"/><path d="m439.105 161.097c-4.99 1.06-10.16 1.62-15.46 1.62-41 0-74.36-33.36-74.36-74.36s33.36-74.36 74.36-74.36c5.3 0 10.47.56 15.46 1.62-33.6 7.13-58.89 37.04-58.89 72.74s25.29 65.61 58.89 72.74z" fill="#dddaec"/><path d="m417.573 135.076c-3.121-.269-6.03-1.806-8.015-4.303l-31.914-40.161c-3.952-4.972-3.124-12.207 1.849-16.158 4.973-3.952 12.208-3.123 16.158 1.849l21.148 26.613 28.495-51.961c3.054-5.569 10.043-7.607 15.613-4.554 5.569 3.054 7.607 10.044 4.553 15.613l-36.815 67.134c-1.852 3.377-5.27 5.602-9.107 5.929-.661.056-1.317.055-1.965-.001z" fill="#78c2a4"/></g></svg>