<svg id="Layer_1" enable-background="new 0 0 512 512" height="512" viewBox="0 0 512 512" width="512" xmlns="http://www.w3.org/2000/svg"><g><g fill="#f78e36"><path d="m446.003 62.151-19.573-19.575c-2.929-2.928-7.678-2.929-10.607 0s-2.929 7.678 0 10.607l6.217 6.218h-79.604c-4.142 0-7.5 3.358-7.5 7.5s3.358 7.5 7.5 7.5h80.713l-7.327 7.327c-2.929 2.929-2.928 7.678 0 10.607 1.465 1.464 3.384 2.196 5.303 2.196s3.839-.732 5.304-2.197l19.574-19.576c2.929-2.929 2.929-7.677 0-10.607z"/><path d="m169.564 60.509h-80.713l7.327-7.327c2.929-2.929 2.928-7.678 0-10.607-2.93-2.929-7.678-2.928-10.607 0l-19.574 19.576c-2.928 2.929-2.928 7.677 0 10.606l19.573 19.576c1.465 1.464 3.384 2.197 5.304 2.197 1.919 0 3.839-.732 5.303-2.196 2.929-2.929 2.929-7.678 0-10.607l-6.217-6.218h79.604c4.142 0 7.5-3.358 7.5-7.5s-3.358-7.5-7.5-7.5z"/></g><path d="m24.724 319.979h30.905v153.021h-30.905z" fill="#6eabc9"/><path d="m456.37 319.797h30.905v153.021h-30.905z" fill="#6eabc9"/><path d="m508 396.121h-504c-2.209 0-4-1.791-4-4v-22.909c0-2.209 1.791-4 4-4h504c2.209 0 4 1.791 4 4v22.909c0 2.209-1.791 4-4 4z" fill="#a9dbf5"/><path d="m481.095 365.212v30.909h26.905c2.209 0 4-1.791 4-4v-22.909c0-2.209-1.791-4-4-4z" fill="#88c3e0"/><path d="m488.821 340.368h-465.642c-2.276 0-4.121-1.845-4.121-4.121v-86.546c0-2.276 1.845-4.121 4.121-4.121h465.641c2.276 0 4.121 1.845 4.121 4.121v86.546c.001 2.276-1.844 4.121-4.12 4.121z" fill="#a9dbf5"/><path d="m496.546 494h-481.092c-8.535 0-15.454-6.919-15.454-15.454v-.002c0-8.535 6.919-15.454 15.454-15.454h481.093c8.535 0 15.454 6.919 15.454 15.454v.002c-.001 8.535-6.92 15.454-15.455 15.454z" fill="#7be492"/><path d="m496.547 463.091h-30.905c8.534 0 15.453 6.919 15.453 15.455 0 8.535-6.919 15.455-15.453 15.455h30.905c8.534 0 15.453-6.919 15.453-15.455s-6.919-15.455-15.453-15.455z" fill="#45d987"/><path d="m149.667 207.904c0 34.314-25.065 24.837-54.526 24.837s-52.163 9.477-52.163-24.837 23.882-87.904 53.344-87.904 53.345 53.59 53.345 87.904z" fill="#be652b"/><path d="m49.964 215.818h92.716v102.796h-92.716z" fill="#ffd54f"/><path d="m111.775 215.818h30.905v102.796h-30.905z" fill="#ffc328"/><path d="m34.511 370.129c-8.534 0-15.453-6.918-15.453-15.453v-114.133c0-13.655 11.069-24.724 24.724-24.724h6.181v138.858c.001 8.534-6.918 15.452-15.452 15.452z" fill="#ebad88"/><path d="m158.133 370.129c8.534 0 15.453-6.918 15.453-15.453v-114.133c0-13.655-11.069-24.724-24.724-24.724h-6.181v138.858c-.001 8.534 6.917 15.452 15.452 15.452z" fill="#ebad88"/><path d="m125.45 377.523h-58.256c-9.516 0-17.23-7.714-17.23-17.23v-41.679h92.716v41.679c0 9.516-7.714 17.23-17.23 17.23z" fill="#ff80ab"/><path d="m111.775 318.614v58.909h13.676c9.515 0 17.229-7.715 17.229-17.231v-41.678z" fill="#f06a98"/><path d="m96.322 242.606c-8.534 0-15.453-6.918-15.453-15.453v-42.244h30.905v42.244c.001 8.535-6.918 15.453-15.452 15.453z" fill="#e8916f"/><path d="m96.322 202.424c-17.069 0-30.905-13.837-30.905-30.905v-16.492c0-17.069 13.837-30.905 30.905-30.905 17.069 0 30.905 13.837 30.905 30.905v16.492c0 17.068-13.836 30.905-30.905 30.905z" fill="#ebad88"/><path d="m96.322 120c-17.069 0-30.905 13.838-30.905 30.909v13.448c2.615 5.804 19.045 3.248 36.373-10.595 8.981 8.137 19.97 16.714 25.438 10.595v-13.448c-.001-17.071-13.837-30.909-30.906-30.909z" fill="#d67b42"/><path d="m369.32 215.818h92.716v102.796h-92.716z" fill="#f75632"/><path d="m431.131 215.818h30.905v102.796h-30.905z" fill="#e33629"/><path d="m353.867 373.455c-8.534 0-15.453-6.918-15.453-15.453v-117.459c0-13.655 11.069-24.724 24.724-24.724h6.181v142.184c.001 8.533-6.917 15.452-15.452 15.452z" fill="#ebad88"/><path d="m477.489 373.455c8.534 0 15.453-6.918 15.453-15.453v-117.459c0-13.655-11.069-24.724-24.724-24.724h-6.181v142.184c-.001 8.533 6.918 15.452 15.452 15.452z" fill="#ebad88"/><path d="m369.32 318.614h92.716v51.515h-92.716z" fill="#4362a0"/><path d="m431.131 318.614h30.905v51.515h-30.905z" fill="#3e5a94"/><path d="m415.678 236.424c-8.534 0-15.453-6.918-15.453-15.453v-36.062h30.905v36.062c.001 8.535-6.918 15.453-15.452 15.453z" fill="#e8916f"/><path d="m415.678 204.485c-17.069 0-30.905-13.837-30.905-30.905v-16.492c0-17.069 13.837-30.905 30.905-30.905 17.069 0 30.905 13.837 30.905 30.905v16.492c0 17.068-13.836 30.905-30.905 30.905z" fill="#ebad88"/><path d="m415.678 126.182c-17.069 0-30.905 13.838-30.905 30.909v.989c7.991 4.878 18.887 7.887 30.905 7.887s22.914-3.009 30.905-7.887v-.989c0-17.071-13.836-30.909-30.905-30.909z" fill="#be652b"/><path d="m369.32 277.636h-30.905v-37.092c0-13.656 11.07-24.726 24.726-24.726h6.18v61.818z" fill="#4362a0"/><path d="m462.036 277.636h30.905v-37.092c0-13.656-11.07-24.726-24.726-24.726h-6.18v61.818z" fill="#4362a0"/><path d="m96.322 463.091h-30.906v-108.184c0-8.534 6.918-15.453 15.453-15.453 8.534 0 15.453 6.918 15.453 15.453z" fill="#ebad88"/><path d="m127.227 463.091h-30.905v-108.184c0-8.534 6.918-15.453 15.453-15.453 8.534 0 15.453 6.918 15.453 15.453v108.184z" fill="#e8916f"/><path d="m96.322 463.091h-30.906v-17.517c0-8.534 6.918-15.453 15.453-15.453 8.534 0 15.453 6.918 15.453 15.453z" fill="#be652b"/><path d="m127.227 463.091h-30.905v-17.517c0-8.534 6.918-15.453 15.453-15.453 8.534 0 15.453 6.918 15.453 15.453v17.517z" fill="#a75224"/><path d="m400.225 463.091h-30.905v-108.184c0-8.534 6.918-15.453 15.453-15.453 8.534 0 15.453 6.918 15.453 15.453v108.184z" fill="#395287"/><path d="m462.036 463.091h-30.905v-108.184c0-8.534 6.918-15.453 15.453-15.453 8.534 0 15.453 6.918 15.453 15.453v108.184z" fill="#395287"/><path d="m400.225 463.091h-30.905v-17.517c0-8.534 6.918-15.453 15.453-15.453 8.534 0 15.453 6.918 15.453 15.453v17.517z" fill="#be652b"/><path d="m462.036 463.091h-30.905v-17.517c0-8.534 6.918-15.453 15.453-15.453 8.534 0 15.453 6.918 15.453 15.453v17.517z" fill="#be652b"/><path d="m308.338 19.977c-7.439-4.175-16.851-1.522-21.022 5.927l-31.746 56.699-25.29-30.332c-13.728-15.212-36.219 3.535-23.71 19.817 0 0 39.656 47.56 39.656 47.56 6.67 8.273 20.302 6.998 25.326-2.349 0 0 42.706-76.276 42.706-76.276 4.17-7.447 1.52-16.871-5.92-21.046z" fill="#7be492"/></g></svg>